<svg xmlns="http://www.w3.org/2000/svg" id="svg2" width="32" height="32" version="1.1">
  <defs id="defs2">
    <linearGradient id="bg" x1="0" x2="100%" y1="0" y2="100%">
      <stop id="stop1" offset="0%" stop-color="var(--bg-top-color)" />
      <stop id="stop2" offset="100%" stop-color="var(--bg-bottom-color)" />
    </linearGradient>
  </defs>
  <style>
    :root {
      --bg-top-color: tomato;
      --bg-bottom-color: crimson;
      --fg-color: white;
    }

    @media (prefers-color-scheme:dark) {
      :root {
        --bg-top-color: #D32F2F;
        --bg-bottom-color: #B71C1C;
        --fg-color: whitesmoke;
      }
    }
  </style>
  <rect width="32" height="32" x="0" y="0" fill="url(#bg)" rx="4" />
  <path fill="var(--fg-color)"
    d="M16.656 5.378 15.33 7.656c-3.767-1.13-7.136-.579-8.297 1.42-1.525 2.622 1.023 7.266 6.054 10.15 5.032 2.887 10.355 2.754 11.879.133 1.162-1.999-.042-5.172-2.91-7.847l1.324-2.278c3.99 3.484 5.775 8.06 3.827 11.41-2.407 4.142-9.303 4.313-15.415.81-6.109-3.505-9.41-9.523-7.002-13.663 1.948-3.35 6.834-4.102 11.864-2.413ZM21.026 3l2.242 1.285-6.471 11.132-2.242-1.285ZM9.182 26.429h13.29v2.57H6.963a1.292 1.283 0 0 1-1.314-1.184 1.288 1.279 0 0 1 .17-.743l2.912-5.01 2.242 1.286z" />
</svg>